rec1_007.mot
nRows=27
nColumns=19

name rec1_007.mot
datacolumns 19
datarows 27
range 10.0040788277 10.0560791891
endheader
time	ground_force_vx	ground_force_vy	ground_force_vz	ground_force_px	ground_force_py	ground_force_pz	1_ground_force_vx	1_ground_force_vy	1_ground_force_vz	1_ground_force_px	1_ground_force_py	1_ground_force_pz	ground_torque_x	ground_torque_y	ground_torque_z	1_ground_torque_x	1_ground_torque_y	1_ground_torque_z	
       10.0040788277	       49.6791019961	      676.2507119769	      -36.0455656225	       -0.7000000000	       -0.0180000000	        0.5600000000	       -0.4260953975	        4.1138204232	        0.4849663029	       -0.7000000000	       -0.0180000000	       -0.5600000000	      332.0551778670	       -3.8555866890	      600.1741254126	       -0.6383161818	        0.5740451429	        1.4314231973	
       10.0060791232	       50.5459241388	      677.1267999107	      -36.0494701912	       -0.7000000000	       -0.0180000000	        0.5600000000	       -0.4194961658	        4.1034623338	        0.4888508540	       -0.7000000000	       -0.0180000000	       -0.5600000000	      332.4420715263	       -4.1784694034	      600.0524820033	       -0.6372227195	        0.5721670324	        1.4295044799	
       10.0080788187	       51.3756880228	      678.0380372018	      -36.0652604493	       -0.7000000000	       -0.0180000000	        0.5600000000	       -0.4100017062	        4.0928094713	        0.4904857479	       -0.7000000000	       -0.0180000000	       -0.5600000000	      332.8433188415	       -4.4812219989	      599.9835513232	       -0.6373714798	        0.5724539660	        1.4272478168	
       10.0100792342	       52.1602283520	      678.9787946075	      -36.0934034449	       -0.7000000000	       -0.0180000000	        0.5600000000	       -0.3970186907	        4.0819686079	        0.4904548385	       -0.7000000000	       -0.0180000000	       -0.5600000000	      333.2562058323	       -4.7610891917	      599.9624929036	       -0.6386815825	        0.5745334124	        1.4249553746	
       10.0120788895	       52.8924138263	      679.9423439065	      -36.1339576504	       -0.7000000000	       -0.0180000000	        0.5600000000	       -0.3806525067	        4.0707852070	        0.4896675006	       -0.7000000000	       -0.0180000000	       -0.5600000000	      333.6774796049	       -5.0158590244	      599.9831693163	       -0.6410147198	        0.5776049605	        1.4224133621	
       10.0140791449	       53.5670348347	      680.9213658105	      -36.1866008605	       -0.7000000000	       -0.0180000000	        0.5600000000	       -0.3617909787	        4.0589345050	        0.4890586141	       -0.7000000000	       -0.0180000000	       -0.5600000000	      334.1035093715	       -5.2434625431	      600.0391283234	       -0.6441547998	        0.5806768674	        1.4189181920	
       10.0160788805	       54.1810834758	      681.9081033743	      -36.2507721489	       -0.7000000000	       -0.0180000000	        0.5600000000	       -0.3417371574	        4.0462998128	        0.4895280666	       -0.7000000000	       -0.0180000000	       -0.5600000000	      334.5303694666	       -5.4424564497	      600.1239001337	       -0.6478995962	        0.5826449946	        1.4139796149	
       10.0180791758	       54.7333287980	      682.8944357537	      -36.3258601701	       -0.7000000000	       -0.0180000000	        0.5600000000	       -0.3216194996	        4.0332557922	        0.4919162319	       -0.7000000000	       -0.0180000000	       -0.5600000000	      334.9539230276	       -5.6124462402	      600.2307044318	       -0.6521509637	        0.5824743757	        1.4080281478	
       10.0200789113	       55.2235475100	      683.8719076312	      -36.4116041791	       -0.7000000000	       -0.0180000000	        0.5600000000	       -0.3019243892	        4.0206790760	        0.4968502488	       -0.7000000000	       -0.0180000000	       -0.5600000000	      335.3699861975	       -5.7535213867	      600.3518947838	       -0.6569073380	        0.5795279732	        1.4025732313	
       10.0220793268	       55.6519704194	      684.8316560013	      -36.5083022854	       -0.7000000000	       -0.0180000000	        0.5600000000	       -0.2824830022	        4.0097575210	        0.5047014071	       -0.7000000000	       -0.0180000000	       -0.5600000000	      335.7743915301	       -5.8656864888	      600.4784753417	       -0.6622706443	        0.5736363015	        1.3997803646	
       10.0240789822	       56.0192350672	      685.7645785575	      -36.6167218217	       -0.7000000000	       -0.0180000000	        0.5600000000	       -0.2628928442	        4.0015683689	        0.5153762134	       -0.7000000000	       -0.0180000000	       -0.5600000000	      336.1630254811	       -5.9486219094	      600.6003203953	       -0.6683297313	        0.5651933203	        1.4014890408	
       10.0260793176	       56.3268971065	      686.6619399645	      -36.7381051195	       -0.7000000000	       -0.0180000000	        0.5600000000	       -0.2430315784	        3.9967359617	        0.5281638164	       -0.7000000000	       -0.0180000000	       -0.5600000000	      336.5320847280	       -6.0016324917	      600.7071159531	       -0.6750291316	        0.5551136251	        1.4084389600	
       10.0280790131	       56.5782106945	      687.5162241288	      -36.8740248316	       -0.7000000000	       -0.0180000000	        0.5600000000	       -0.2232991000	        3.9954706645	        0.5419427526	       -0.7000000000	       -0.0180000000	       -0.5600000000	      336.8783677213	       -6.0242611308	      600.7895781854	       -0.6822282663	        0.5444894657	        1.4203788105	
       10.0300793885	       56.7786217295	      688.3216986102	      -37.0260687930	       -0.7000000000	       -0.0180000000	        0.5600000000	       -0.2044147097	        3.9978193072	        0.5553456376	       -0.7000000000	       -0.0180000000	       -0.5600000000	      337.1993943260	       -6.0170447037	      600.8403539006	       -0.6897457007	        0.5344663425	        1.4367369472	
       10.0320790039	       56.9356171460	      689.0742885427	      -37.1956346005	       -0.7000000000	       -0.0180000000	        0.5600000000	       -0.1869854070	        4.0039826493	        0.5669756247	       -0.7000000000	       -0.0180000000	       -0.5600000000	      337.4933581739	       -5.9818346981	      600.8539089670	       -0.6974039880	        0.5261759969	        1.4574384868	
       10.0340792994	       57.0578876509	      689.7711125417	      -37.3837267182	       -0.7000000000	       -0.0180000000	        0.5600000000	       -0.1712126225	        4.0144967488	        0.5757160015	       -0.7000000000	       -0.0180000000	       -0.5600000000	      337.7589758210	       -5.9215322335	      600.8257605423	       -0.7051425981	        0.5205860715	        1.4832774033	
       10.0360790748	       57.1541407255	      690.4101229095	      -37.5909180943	       -0.7000000000	       -0.0180000000	        0.5600000000	       -0.1568944730	        4.0300170719	        0.5808248382	       -0.7000000000	       -0.0180000000	       -0.5600000000	      337.9954012364	       -5.8389937523	      600.7519483169	       -0.7130010007	        0.5184596278	        1.5153535185	
       10.0380793701	       57.2321233111	      690.9899471342	      -37.8174158240	       -0.7000000000	       -0.0180000000	        0.5600000000	       -0.1436764371	        4.0508808901	        0.5820268196	       -0.7000000000	       -0.0180000000	       -0.5600000000	      338.2021868396	       -5.7364896023	      600.6290082305	       -0.7210249435	        0.5201587167	        1.5540841763	
       10.0400790656	       57.2981524562	      691.5099657352	      -38.0629785821	       -0.7000000000	       -0.0180000000	        0.5600000000	       -0.1313261353	        4.0767864126	        0.5795618842	       -0.7000000000	       -0.0180000000	       -0.5600000000	      338.3792093193	       -5.6165230687	      600.4544230053	       -0.7291843135	        0.5254793196	        1.5985292290	
       10.0420794010	       57.3572268906	      691.9704594386	      -38.3270177248	       -0.7000000000	       -0.0180000000	        0.5600000000	       -0.1198171305	        4.1068124919	        0.5740801912	       -0.7000000000	       -0.0180000000	       -0.5600000000	      338.5266869523	       -5.4822958547	      600.2271313320	       -0.7373277016	        0.5337301535	        1.6464791729	
       10.0440791365	       57.4135837650	      692.3726728788	      -38.6088217974	       -0.7000000000	       -0.0180000000	        0.5600000000	       -0.1092308489	        4.1397885393	        0.5666390081	       -0.7000000000	       -0.0180000000	       -0.5600000000	      338.6452268531	       -5.3372286422	      599.9476078811	       -0.7452824060	        0.5437790239	        1.6953396908	
       10.0460794320	       57.4712547029	      692.7186710048	      -38.9076521108	       -0.7000000000	       -0.0180000000	        0.5600000000	       -0.0995842324	        4.1746631208	        0.5585892390	       -0.7000000000	       -0.0180000000	       -0.5600000000	      338.7357466751	       -5.1842168697	      599.6175108611	       -0.7529449112	        0.5542579408	        1.7430535165	
       10.0480791273	       57.5342745088	      693.0107683147	      -39.2228864134	       -0.7000000000	       -0.0180000000	        0.5600000000	       -0.0907433746	        4.2106823629	        0.5512862760	       -0.7000000000	       -0.0180000000	       -0.5600000000	      338.7993103090	       -5.0249829932	      599.2389018854	       -0.7602790434	        0.5639030892	        1.7884556190	
       10.0500794229	       57.6064447927	      693.2509767375	      -39.5540821283	       -0.7000000000	       -0.0180000000	        0.5600000000	       -0.0825326778	        4.2473971384	        0.5458845006	       -0.7000000000	       -0.0180000000	       -0.5600000000	      338.8369745430	       -4.8602470353	      598.8135212612	       -0.7673378219	        0.5717038772	        1.8310379775	
       10.0520791982	       57.6907680076	      693.4410984888	      -39.9009611043	       -0.7000000000	       -0.0180000000	        0.5600000000	       -0.0748858376	        4.2843579029	        0.5431083094	       -0.7000000000	       -0.0180000000	       -0.5600000000	      338.8498127392	       -4.6902870483	      598.3428920271	       -0.7741854511	        0.5770174101	        1.8702085028	
       10.0540795736	       57.7889082426	      693.5831710593	      -40.2634278475	       -0.7000000000	       -0.0180000000	        0.5600000000	       -0.0678638541	        4.3207378185	        0.5431291531	       -0.7000000000	       -0.0180000000	       -0.5600000000	      338.8390805126	       -4.5150816044	      597.8289250249	       -0.7807506050	        0.5796102921	        1.9046849268	
       10.0560791891	       57.9009364567	      693.6797093885	      -40.6413349202	       -0.7000000000	       -0.0180000000	        0.5600000000	       -0.0615409662	        4.3553815688	        0.5456831723	       -0.7000000000	       -0.0180000000	       -0.5600000000	      338.8062456798	       -4.3345279477	      597.2742878554	       -0.7868262606	        0.5795917372	        1.9326977007	
